<svg xmlns="http://www.w3.org/2000/svg" xmlns:xlink="http://www.w3.org/1999/xlink" width="313.135" height="382" viewBox="0 0 313.135 382">
  <defs>
    <filter id="Path_299" x="2.135" y="111" width="311" height="271" filterUnits="userSpaceOnUse">
      <feOffset dy="3" input="SourceAlpha"/>
      <feGaussianBlur stdDeviation="3" result="blur"/>
      <feFlood flood-color="#f17e7b"/>
      <feComposite operator="in" in2="blur"/>
      <feComposite in="SourceGraphic"/>
    </filter>
    <filter id="Path_30" x="8.619" y="43.521" width="297.243" height="245.441" filterUnits="userSpaceOnUse">
      <feOffset dy="3" input="SourceAlpha"/>
      <feGaussianBlur stdDeviation="3" result="blur-2"/>
      <feFlood flood-opacity="0.161"/>
      <feComposite operator="in" in2="blur-2"/>
      <feComposite in="SourceGraphic"/>
    </filter>
    <clipPath id="clip-path">
      <rect width="26" height="110" fill="none"/>
    </clipPath>
    <clipPath id="clip-path-2">
      <rect width="27" height="90" fill="none"/>
    </clipPath>
    <clipPath id="clip-path-3">
      <rect width="34" height="5" fill="none"/>
    </clipPath>
    <clipPath id="clip-path-4">
      <rect width="9" height="111" fill="none"/>
    </clipPath>
    <linearGradient id="linear-gradient" x1="0.198" y1="0.499" x2="0.841" y2="0.558" gradientUnits="objectBoundingBox">
      <stop offset="0.032" stop-color="#fadbbe"/>
      <stop offset="1" stop-color="#f8c99e"/>
    </linearGradient>
    <linearGradient id="linear-gradient-2" x1="0" y1="0.5" x2="1" y2="0.5" xlink:href="#linear-gradient"/>
    <linearGradient id="linear-gradient-3" x1="0.881" y1="-0.113" x2="0.342" y2="0.868" xlink:href="#linear-gradient"/>
    <linearGradient id="linear-gradient-4" x1="1.102" y1="0.447" x2="0.083" y2="0.55" gradientUnits="objectBoundingBox">
      <stop offset="0" stop-color="#fc5653"/>
      <stop offset="1" stop-color="#fc0053"/>
    </linearGradient>
    <linearGradient id="linear-gradient-7" x1="0.739" y1="-5.204" x2="0.316" y2="4.905" xlink:href="#linear-gradient"/>
    <linearGradient id="linear-gradient-8" x1="0.503" y1="0.156" x2="0.474" y2="0.922" xlink:href="#linear-gradient"/>
  </defs>
  <g id="Group_70" data-name="Group 70" transform="translate(-22.865 -87)">
    <g transform="matrix(1, 0, 0, 1, 22.86, 87)" filter="url(#Path_299)">
      <path id="Path_299-2" data-name="Path 299" d="M90,0H203a90,90,0,0,1,90,90v73a90,90,0,0,1-90,90H90A90,90,0,0,1,0,163V90A90,90,0,0,1,90,0Z" transform="translate(11.14 117)" fill="#f17e7b"/>
    </g>
    <g transform="matrix(1, 0, 0, 1, 22.86, 87)" filter="url(#Path_30)">
      <path id="Path_30-2" data-name="Path 30" d="M54.135-26.074c51.651-14.842,73,43.858,73,43.858,51.566-57.72,68.638,1.289,98.43,23.561,48.379-34.765,53.68,18.5,53.68,39.5v35.065c0,45.866-44.828,83.049-100.127,83.049H100.127C44.828,198.962,0,161.78,0,115.914V80.849C0,34.982,2.485-11.232,54.135-26.074Z" transform="translate(17.62 78)" fill="#f0efff"/>
    </g>
    <rect id="Rectangle_15" data-name="Rectangle 15" width="118" height="9" rx="4.5" transform="translate(123 355)" fill="#3f3d55"/>
    <rect id="Rectangle_18" data-name="Rectangle 18" width="47" height="105" transform="translate(150 191)" fill="#e1e0fe"/>
    <rect id="Rectangle_16" data-name="Rectangle 16" width="47" height="136" transform="translate(123 219)" fill="#e1e0fe"/>
    <path id="Path_31" data-name="Path 31" d="M73.9,117.792a6.458,6.458,0,0,1-.921.374,6.909,6.909,0,0,1,.921-.374c1.595-.783,3.22-2.3,1.359-3.385-1.216-.71-2.977-.381-4.53.737a5.263,5.263,0,0,1-.84.694,7.389,7.389,0,0,1,.84-.694,19.669,19.669,0,0,0,1.557-1.834,3.04,3.04,0,0,0-1.247-4.851,6.123,6.123,0,0,0-6.856,1.971,9.325,9.325,0,0,0-1.486,4.91c0-1.174-.046-3.415-2.849-3.236-2.877.185-2.241,3.086-2.254,4.632v.089c0-.029,0-.06,0-.089,0-.6-.147-4.408-3.088-5.9a6.066,6.066,0,0,0-4.842-.393c-2.054.7-2.72,2.277-2.259,3.741.555,1.76,2.821,3.291,2.821,3.291a23.835,23.835,0,0,0-3.8-1.319c-2.583-.445-6.762-.577-8.421,1.337-1.592,1.836.737,4.627,5.532,4.746,3.156.078,29.971.169,33.135.169,2.521,0,6.283-1.1,5.649-3.438C81.766,116.957,76.871,116.789,73.9,117.792Z" transform="translate(31.566 26.17)" fill="#e1e0fe" opacity="0.75"/>
    <rect id="Rectangle_19" data-name="Rectangle 19" width="47" height="124" transform="translate(197 231)" fill="#e1e0fe"/>
    <path id="Path_32" data-name="Path 32" d="M73.9,117.792a6.458,6.458,0,0,1-.921.374,6.909,6.909,0,0,1,.921-.374c1.595-.783,3.22-2.3,1.359-3.385-1.216-.71-2.977-.381-4.53.737a5.263,5.263,0,0,1-.84.694,7.389,7.389,0,0,1,.84-.694,19.669,19.669,0,0,0,1.557-1.834,3.04,3.04,0,0,0-1.247-4.851,6.123,6.123,0,0,0-6.856,1.971,9.325,9.325,0,0,0-1.486,4.91c0-1.174-.046-3.415-2.849-3.236-2.877.185-2.241,3.086-2.254,4.632v.089c0-.029,0-.06,0-.089,0-.6-.147-4.408-3.088-5.9a6.066,6.066,0,0,0-4.842-.393c-2.054.7-2.72,2.277-2.259,3.741.555,1.76,2.821,3.291,2.821,3.291a23.835,23.835,0,0,0-3.8-1.319c-2.583-.445-6.762-.577-8.421,1.337-1.592,1.836.737,4.627,5.532,4.746,3.156.078,29.971.169,33.135.169,2.521,0,6.283-1.1,5.649-3.438C81.766,116.957,76.871,116.789,73.9,117.792Z" transform="translate(182.899 7.715)" fill="#e1e0fe" opacity="0.75"/>
    <rect id="Rectangle_17" data-name="Rectangle 17" width="47" height="105" transform="translate(170 250)" fill="#e1e0fe"/>
    <path id="Path_34" data-name="Path 34" d="M73.9,117.792a6.458,6.458,0,0,1-.921.374,6.909,6.909,0,0,1,.921-.374c1.595-.783,3.22-2.3,1.359-3.385-1.216-.71-2.977-.381-4.53.737a5.263,5.263,0,0,1-.84.694,7.389,7.389,0,0,1,.84-.694,19.669,19.669,0,0,0,1.557-1.834,3.04,3.04,0,0,0-1.247-4.851,6.123,6.123,0,0,0-6.856,1.971,9.325,9.325,0,0,0-1.486,4.91c0-1.174-.046-3.415-2.849-3.236-2.877.185-2.241,3.086-2.254,4.632v.089c0-.029,0-.06,0-.089,0-.6-.147-4.408-3.088-5.9a6.066,6.066,0,0,0-4.842-.393c-2.054.7-2.72,2.277-2.259,3.741.555,1.76,2.821,3.291,2.821,3.291a23.835,23.835,0,0,0-3.8-1.319c-2.583-.445-6.762-.577-8.421,1.337-1.592,1.836.737,4.627,5.532,4.746,3.156.078,29.971.169,33.135.169,2.521,0,6.283-1.1,5.649-3.438C81.766,116.957,76.871,116.789,73.9,117.792Z" transform="translate(210.582 108.231)" fill="#e1e0fe" opacity="0.75"/>
    <g id="Repeat_Grid_1" data-name="Repeat Grid 1" transform="translate(128 235)" clip-path="url(#clip-path)">
      <g transform="translate(-124 -180)">
        <rect id="Rectangle_21" data-name="Rectangle 21" width="28" height="6" transform="translate(124 180)" fill="#f0efff"/>
      </g>
      <g transform="translate(-124 -165)">
        <rect id="Rectangle_21-2" data-name="Rectangle 21" width="28" height="6" transform="translate(124 180)" fill="#f0efff"/>
      </g>
      <g transform="translate(-124 -150)">
        <rect id="Rectangle_21-3" data-name="Rectangle 21" width="28" height="6" transform="translate(124 180)" fill="#f0efff"/>
      </g>
      <g transform="translate(-124 -135)">
        <rect id="Rectangle_21-4" data-name="Rectangle 21" width="28" height="6" transform="translate(124 180)" fill="#f0efff"/>
      </g>
      <g transform="translate(-124 -120)">
        <rect id="Rectangle_21-5" data-name="Rectangle 21" width="28" height="6" transform="translate(124 180)" fill="#f0efff"/>
      </g>
      <g transform="translate(-124 -105)">
        <rect id="Rectangle_21-6" data-name="Rectangle 21" width="28" height="6" transform="translate(124 180)" fill="#f0efff"/>
      </g>
      <g transform="translate(-124 -90)">
        <rect id="Rectangle_21-7" data-name="Rectangle 21" width="28" height="6" transform="translate(124 180)" fill="#f0efff"/>
      </g>
      <g transform="translate(-124 -75)">
        <rect id="Rectangle_21-8" data-name="Rectangle 21" width="28" height="6" transform="translate(124 180)" fill="#f0efff"/>
      </g>
    </g>
    <g id="Repeat_Grid_2" data-name="Repeat Grid 2" transform="translate(175 256)" clip-path="url(#clip-path-2)">
      <g transform="translate(-175 -203)">
        <rect id="Rectangle_22" data-name="Rectangle 22" width="10" height="9" transform="translate(175 203)" fill="#f0efff"/>
        <rect id="Rectangle_23" data-name="Rectangle 23" width="10" height="9" transform="translate(194 203)" fill="#f0efff"/>
      </g>
      <g transform="translate(-175 -182)">
        <rect id="Rectangle_22-2" data-name="Rectangle 22" width="10" height="9" transform="translate(175 203)" fill="#f0efff"/>
        <rect id="Rectangle_23-2" data-name="Rectangle 23" width="10" height="9" transform="translate(194 203)" fill="#f0efff"/>
      </g>
      <g transform="translate(-175 -161)">
        <rect id="Rectangle_22-3" data-name="Rectangle 22" width="10" height="9" transform="translate(175 203)" fill="#f0efff"/>
        <rect id="Rectangle_23-3" data-name="Rectangle 23" width="10" height="9" transform="translate(194 203)" fill="#f0efff"/>
      </g>
      <g transform="translate(-175 -140)">
        <rect id="Rectangle_22-4" data-name="Rectangle 22" width="10" height="9" transform="translate(175 203)" fill="#f0efff"/>
        <rect id="Rectangle_23-4" data-name="Rectangle 23" width="10" height="9" transform="translate(194 203)" fill="#f0efff"/>
      </g>
      <g transform="translate(-175 -119)">
        <rect id="Rectangle_22-5" data-name="Rectangle 22" width="10" height="9" transform="translate(175 203)" fill="#f0efff"/>
        <rect id="Rectangle_23-5" data-name="Rectangle 23" width="10" height="9" transform="translate(194 203)" fill="#f0efff"/>
      </g>
    </g>
    <g id="Repeat_Grid_3" data-name="Repeat Grid 3" transform="translate(157 199)" clip-path="url(#clip-path-3)">
      <g transform="translate(-155 -141)">
        <rect id="Rectangle_24" data-name="Rectangle 24" width="22" height="6" transform="translate(155 141)" fill="#f0efff"/>
        <rect id="Rectangle_25" data-name="Rectangle 25" width="8" height="6" transform="translate(184 141)" fill="#f0efff"/>
      </g>
    </g>
    <rect id="Rectangle_26" data-name="Rectangle 26" width="9" height="7" transform="translate(205 238)" fill="#f0efff"/>
    <g id="Repeat_Grid_4" data-name="Repeat Grid 4" transform="translate(227 238)" clip-path="url(#clip-path-4)">
      <g transform="translate(-231 -183)">
        <rect id="Rectangle_27" data-name="Rectangle 27" width="10" height="8" transform="translate(231 183)" fill="#f0efff"/>
      </g>
      <g transform="translate(-231 -155)">
        <rect id="Rectangle_27-2" data-name="Rectangle 27" width="10" height="8" transform="translate(231 183)" fill="#f0efff"/>
      </g>
      <g transform="translate(-231 -127)">
        <rect id="Rectangle_27-3" data-name="Rectangle 27" width="10" height="8" transform="translate(231 183)" fill="#f0efff"/>
      </g>
      <g transform="translate(-231 -99)">
        <rect id="Rectangle_27-4" data-name="Rectangle 27" width="10" height="8" transform="translate(231 183)" fill="#f0efff"/>
      </g>
    </g>
    <path id="Path_35" data-name="Path 35" d="M59.825,114.041a3.961,3.961,0,0,1-.565.229,4.237,4.237,0,0,1,.565-.229c.978-.481,1.975-1.411.834-2.076a2.64,2.64,0,0,0-2.779.452,3.227,3.227,0,0,1-.515.426,4.534,4.534,0,0,1,.515-.426,12.064,12.064,0,0,0,.955-1.125,1.865,1.865,0,0,0-.765-2.976,3.756,3.756,0,0,0-4.206,1.209,5.72,5.72,0,0,0-.911,3.012c0-.72-.028-2.095-1.747-1.985-1.765.113-1.375,1.893-1.383,2.842v.054c0-.018,0-.037,0-.054,0-.367-.09-2.7-1.895-3.618a3.721,3.721,0,0,0-2.97-.241,1.813,1.813,0,0,0-1.386,2.295,4.948,4.948,0,0,0,1.73,2.019,14.621,14.621,0,0,0-2.334-.809c-1.584-.273-4.148-.354-5.166.82-.976,1.126.452,2.838,3.393,2.911,1.936.048,18.385.1,20.325.1,1.546,0,3.854-.672,3.465-2.109C64.653,113.529,61.651,113.426,59.825,114.041Z" transform="translate(37.103 31.707)" fill="#d2d0fc" opacity="0.75"/>
    <path id="Path_37" data-name="Path 37" d="M-38.018,203.068s-1.775-18.333,21.062-29.109,32.175-22.588,33.34-34.1,8.982-26.578,28.354-26.578,66.489,12.821,66.825-5.778S96.544,78.687,96.544,78.687" transform="translate(99.687 61.678)" fill="none" stroke="#fff" stroke-width="1"/>
    <path id="Path_39" data-name="Path 39" d="M134.5,143.345s5.46,15.432,17.189,10.015-19.651-21.34,0-21.453,25.549-8.332,25.549-8.332" transform="translate(86.359 58.211)" fill="none" stroke="#fff" stroke-width="1"/>
    <g id="Group_16" data-name="Group 16" transform="translate(125.353 172.73)">
      <path id="Path_2" data-name="Path 2" d="M72.2,224.277c-4.364,1.155-5.9,13.732-5.9,13.732l4.236,1.027s3.08-11.679,4.62-11.165-1.539,11.165-1.539,11.165l5.149,1.628s1.268-9.713,1.781-12.665S76.565,223.122,72.2,224.277Z" transform="translate(-40.001 -167.328)" fill="#100142"/>
      <path id="Path_3" data-name="Path 3" d="M41.015,248.505C36.907,250.73,28.18,282.4,28.18,282.4s-5.994,20.971-7.893,37.888a5.681,5.681,0,0,0,5.358,6.3c8.762.442,24.67.638,28.426-3.43,5.253-5.689,15.26-72.3,12.053-76.129S45.121,246.281,41.015,248.505Z" transform="translate(-19.509 -176.797)" fill="#4e4c91"/>
      <path id="Path_4" data-name="Path 4" d="M52.323,248.187c6.016,12.308-9.2,26.618-7.022,39.676.59,3.546,4.739,7.9,3.49,11.289-1.486,4.026-4.473,6.459-2.485,11.19,2.641,6.282-.854,11.12-2.2,16.467,8.292.037,17.789-.632,20.579-3.653,5.253-5.689,15.26-72.3,12.053-76.129C73.686,243.379,57.4,246.006,52.323,248.187Z" transform="translate(-30.127 -176.796)" fill="#100142"/>
      <path id="Path_5" data-name="Path 5" d="M33.4,251.266c-6.844,8.556-16.256,39.358-14.2,41.582s14.717,3.593,18.31,0,15.915-46.374,15.915-46.374S40.248,242.71,33.4,251.266Z" transform="translate(-18.913 -176.991)" fill="#565486"/>
      <path id="Path_6" data-name="Path 6" d="M79.481,379.309s4.97,20.123,9.315,39.231h29.86c-.538-19.63-.8-39.231-.8-39.231Z" transform="translate(-45.868 -236.473)" fill="#524f9a"/>
      <path id="Path_7" data-name="Path 7" d="M73.092,379.309c-6.032,3.43-7.813,21.294-7.967,39.231H99.231c3.792-16.385,12.25-39.231,12.25-39.231Z" transform="translate(-39.479 -236.473)" fill="#565486"/>
      <path id="Path_8" data-name="Path 8" d="M80.148,399.363c2.094-6.4,1.256-14.447-2.836-20.054H73.092c-6.032,3.43-7.813,21.294-7.967,39.231H76.292C75.626,411.754,77.933,406.135,80.148,399.363Z" transform="translate(-39.479 -236.473)" fill="#524f9a" opacity="0.55" style="mix-blend-mode: multiply;isolation: isolate"/>
      <g id="Group_11" data-name="Group 11" transform="translate(43.553 28.362)">
        <g id="Group_9" data-name="Group 9" transform="translate(50.361)">
          <path id="Path_9" data-name="Path 9" d="M198.4,174.12c-.77,1.027-2.6,7.015-3.5,7.529s-5.9-6.032-6.674-4.877,3.337,9.625,3.85,11.679a22.53,22.53,0,0,1,0,6.075l8.471.856s.684-2.053,4.021-9.155,4.138-7.358,1.914-10.866S199.174,173.092,198.4,174.12Z" transform="translate(-188.137 -173.039)" fill="#ff9150"/>
          <path id="Path_10" data-name="Path 10" d="M198.4,174.12c-.77,1.027-2.6,7.015-3.5,7.529s-5.9-6.032-6.674-4.877,3.337,9.625,3.85,11.679a22.53,22.53,0,0,1,0,6.075l8.471.856s.684-2.053,4.021-9.155,4.138-7.358,1.914-10.866S199.174,173.092,198.4,174.12Z" transform="translate(-188.137 -173.039)" fill="#fca3a3"/>
        </g>
        <g id="Group_10" data-name="Group 10" transform="translate(0 20.255)">
          <path id="Path_11" data-name="Path 11" d="M142.621,243.921c-.855.856-23.576-6.621-27.356-10.529-6.3-6.513-14.561-5.537-17.213,1.308-6.459,16.668,36.27,31.039,47.8,31.81s15.943-54.886,15.943-54.886l-11.337-2.087S143.477,243.066,142.621,243.921Z" transform="translate(-97.391 -209.536)" fill="#f17e7b"/>
          <path id="Path_12" data-name="Path 12" d="M142.621,243.921c-.855.856-23.576-6.621-27.356-10.529-6.3-6.513-14.561-5.537-17.213,1.308-6.459,16.668,36.27,31.039,47.8,31.81s15.943-54.886,15.943-54.886l-11.337-2.087S143.477,243.066,142.621,243.921Z" transform="translate(-97.391 -209.536)" fill="#f17e7b" style="mix-blend-mode: multiply;isolation: isolate"/>
        </g>
      </g>
      <path id="Path_13" data-name="Path 13" d="M113.805,194.717c2.952,11.936-3.336,24-3.336,24a22.85,22.85,0,0,0,17.069,3.208c-1.155-4.877,0-18.353,0-18.353Z" transform="translate(-59.658 -154.324)" fill="#fbbdbd"/>
      <path id="Path_14" data-name="Path 14" d="M124.435,199.847a40.8,40.8,0,0,1,1.133,4.711c.564,3.5.725,8.416,3.713,10.826a30.493,30.493,0,0,0,3.963,2.537c-.044-5.6.51-12.065.51-12.065Z" transform="translate(-65.874 -156.607)" fill="#fca3a3"/>
      <path id="Path_15" data-name="Path 15" d="M137.794,162.379c-.642-7.444-7.315-10.267-7.315-10.267C120.6,149.8,117.9,159.3,111.87,164.3s.257,8.727,1.412,11.294,2.31,6.417,9.5,9.754,16.043,2.182,17.326,0,.128-10.139.642-10.652,4.235.256,3.336-1.155S137.794,162.379,137.794,162.379Z" transform="translate(-59.134 -135.205)" fill="#fbbdbd"/>
      <path id="Path_16" data-name="Path 16" d="M127,144.136c-6.032-4.364-22.074,0-22.074,0s-12.97-3.081-12.962,10.524c.013,24.259,14.338,25.284,14.338,25.284.734-3.592-.285-8.985-.285-8.985s-7.77-7.249-2.117-10.075c5.519-2.759,5.6,6.2,9.882,7.828s4.064-1.39,4.064-1.39a51.606,51.606,0,0,1-4.364-11.893c14.374,5.9,14.289-2.909,14.289-2.909a30.887,30.887,0,0,1,2.088,4.115C134.9,151.552,133.037,148.5,127,144.136Z" transform="translate(-51.425 -130.951)" fill="#100142"/>
      <path id="Path_17" data-name="Path 17" d="M95.163,123.027c-6.93,4.826-8.856,25.206-8.856,25.206,13.989.642,32.727-17.326,32.727-17.326S102.093,118.2,95.163,123.027Z" transform="translate(-48.906 -121.933)" fill="url(#linear-gradient)"/>
      <path id="Path_18" data-name="Path 18" d="M100.082,136.643c-.823-2.807,1.414-6.029-.063-8.547a53.573,53.573,0,0,0-3.643-5.289,5.546,5.546,0,0,0-1.214.608c-6.93,4.826-8.856,25.206-8.856,25.206,6.387.293,12.3-2.379,18.429-6.362C103.479,140.77,101.195,140.437,100.082,136.643Z" transform="translate(-48.906 -122.322)" fill="url(#linear-gradient-2)" style="mix-blend-mode: multiply;isolation: isolate"/>
      <path id="Path_19" data-name="Path 19" d="M103.846,136.532c-6.289,4.236-17.2,9.882-22.974,10.781s-10.267,2.31-7.828,3.85c0,0,7.059,4.492,26.952-5.647s23.486-16.813,19.38-20.791S110.134,132.3,103.846,136.532Z" transform="translate(-42.701 -122.81)" fill="url(#linear-gradient-3)"/>
      <g id="Group_12" data-name="Group 12" transform="translate(85.95 29.42)">
        <rect id="Rectangle_10" data-name="Rectangle 10" width="9.713" height="6.312" transform="translate(42.959 1.595)" fill="#100142"/>
        <rect id="Rectangle_11" data-name="Rectangle 11" width="2.833" height="6.312" transform="translate(0 1.508)" fill="#100142"/>
        <rect id="Rectangle_12" data-name="Rectangle 12" width="12.556" height="4.531" transform="translate(1.974 2.399)" fill="#100142"/>
        <rect id="Rectangle_13" data-name="Rectangle 13" width="36.839" height="9.95" transform="translate(9.437)" fill="#375d70"/>
        <rect id="Rectangle_14" data-name="Rectangle 14" width="36.839" height="6.574" transform="translate(9.437 3.376)" fill="#100142"/>
      </g>
      <g id="Group_13" data-name="Group 13" transform="translate(74.924 32.633)">
        <path id="Path_20" data-name="Path 20" d="M155.121,180.771a1.281,1.281,0,1,0,1.7.936A1.38,1.38,0,0,0,155.121,180.771Z" transform="translate(-153.919 -180.734)" fill="#100142"/>
      </g>
      <g id="Group_14" data-name="Group 14" transform="translate(72.901 29.218)">
        <path id="Path_21" data-name="Path 21" d="M155.595,174.747a7.3,7.3,0,0,0-5.146.844.373.373,0,1,0,.4.632,6.614,6.614,0,0,1,4.577-.749.373.373,0,0,0,.17-.727Z" transform="translate(-150.274 -174.581)" fill="#100142"/>
      </g>
      <path id="Path_22" data-name="Path 22" d="M162.222,200a.373.373,0,1,0-.48.572,5.153,5.153,0,0,0,2.2,1.166q-.015-.4-.034-.774A4.72,4.72,0,0,1,162.222,200Z" transform="translate(-82.417 -156.635)" fill="url(#linear-gradient-4)"/>
      <g id="Group_15" data-name="Group 15" transform="translate(26.987 64.393)">
        <path id="Path_23" data-name="Path 23" d="M116.26,266.069c-1.158-11.807-8.024-25.97-8.024-25.97-10.637,2.008-16.871-2.136-16.871-2.136-14.759,5.775-17.583,16.3-15.53,36.821s-8.294,47.29-8.294,47.29c21.6,7.529,46.5,1.511,46.5,1.511C112.643,307.926,117.418,277.877,116.26,266.069Z" transform="translate(-67.541 -237.963)" fill="#f17e7b"/>
        <path id="Path_24" data-name="Path 24" d="M75.835,275.65c2.053,20.521-8.294,47.29-8.294,47.29a63.782,63.782,0,0,0,13.253,3.021c-.345-1.353,1.642-6.583,1.563-8.309-.194-4.228,2.43-8.522,4.1-12.219,3-6.651.109-9.658-3.052-15.16-2.223-3.869-2.121-7.982-.963-12.124.713-2.553,2.713-4.837,3.14-7.471.79-4.874-1.45-5.674-2.315-9.413-1.977-8.551,1.481-14.771,5.611-21.354C76.295,245.889,73.9,256.344,75.835,275.65Z" transform="translate(-67.541 -238.829)" fill="url(#linear-gradient-2)" style="mix-blend-mode: multiply;isolation: isolate"/>
      </g>
      <path id="Path_25" data-name="Path 25" d="M130.594,274.569c-.644-.983-1.269-1.977-1.9-2.965a12.763,12.763,0,0,1-3.007-1.518,8.694,8.694,0,0,1-2.966-4.637c-4.907,1.057-9.535,0-14.516-.91,0,12.717,4.227,27.121,16.041,33.354a96.981,96.981,0,0,0,8.867,4c.867-8.959,1.706-17.422,1.311-23.113A13.3,13.3,0,0,1,130.594,274.569Z" transform="translate(-58.653 -185.397)" fill="url(#linear-gradient-2)" style="mix-blend-mode: multiply;isolation: isolate"/>
      <path id="Path_26" data-name="Path 26" d="M206.392,174.12c-.77,1.027-2.6,7.015-3.5,7.529s-5.9-6.032-6.674-4.877,3.337,9.625,3.85,11.679a22.531,22.531,0,0,1,0,6.075l8.47.856s.685-2.053,4.021-9.155,4.139-7.358,1.914-10.866S207.162,173.092,206.392,174.12Z" transform="translate(-97.778 -144.677)" fill="#fbbdbd"/>
      <path id="Path_27" data-name="Path 27" d="M150.61,250.081c-.856.856-23.576-11.216-27.356-15.124-6.3-6.513-14.561-5.537-17.214,1.308-6.459,16.668,36.27,35.635,47.8,36.4s15.944-61.047,15.944-61.047l-11.338-2.087S151.465,249.226,150.61,250.081Z" transform="translate(-57.393 -160.919)" fill="#f17e7b"/>
      <path id="Path_28" data-name="Path 28" d="M185.37,282.376a4.443,4.443,0,0,1-1.1-.186,5.516,5.516,0,0,1-.594,3.214c-.061.092-.125.172-.188.259.514.125.975-.962,1.5-1.654.155-.206,1.8,3.432,1.973,3.338.132-.074-1.219-3.908-1.076-3.867,1.04.3,2.525,1.952,3.225.359a6.647,6.647,0,0,1-3.613-1.737A.979.979,0,0,1,185.37,282.376Z" transform="translate(-92.154 -193.214)" fill="url(#linear-gradient-7)" style="mix-blend-mode: multiply;isolation: isolate"/>
      <path id="Path_29" data-name="Path 29" d="M167.721,245.146a26.112,26.112,0,0,1-3.085,6.724c-2.474,4.42.523,10.637-2.742,14.64a6.462,6.462,0,0,1-4.8,2.523c-3.794.41-4.626,3.88-7.837,4.386-5.719.9-7.475-2.646-11.957-5.313-5.569-3.314-12.162-2.166-16.625-7.432a17.111,17.111,0,0,0-9.4-6.041,19.49,19.49,0,0,1-3.876-1.325c6.312,14.093,37.711,27.436,47.343,28.079,8.794.587,13.447-35.229,15.161-52.263a17.012,17.012,0,0,0-1.813,4.09C166.972,237.242,168.679,241.251,167.721,245.146Z" transform="translate(-58.289 -169.637)" fill="url(#linear-gradient-8)" style="mix-blend-mode: multiply;isolation: isolate"/>
    </g>
    <path id="Path_283" data-name="Path 283" d="M-572.669,182.842s10.925-13.6,27.528,0,12.62,26.924,25.2,24.679,20.254-48.291,53.248-43.609,49.226,10.388,46.89-5.356" transform="translate(596 -1)" fill="none" stroke="#fff" stroke-width="1"/>
    <path id="Path_284" data-name="Path 284" d="M-572.669,175.451c9-23.234,8.53-45.273,23.809-38.286s24-23.984,24-23.984" transform="translate(596 59.549)" fill="none" stroke="#fff" stroke-width="1"/>
    <path id="Polygon_2" data-name="Polygon 2" d="M21.5,0,43,37H0Z" transform="translate(45 236)" fill="#e1e0fe"/>
    <circle id="Ellipse_2" data-name="Ellipse 2" cx="19" cy="19" r="19" transform="translate(78 254)" fill="#e1e0fe"/>
    <path id="Path_40" data-name="Path 40" d="M436,29.029a20.462,20.462,0,1,0,20.462,20.462A20.462,20.462,0,0,0,436,29.029Z" transform="translate(-269.539 57.971)" fill="#f7cc7f"/>
    <path id="Path_285" data-name="Path 285" d="M73.9,117.792a6.458,6.458,0,0,1-.921.374,6.909,6.909,0,0,1,.921-.374c1.595-.783,3.22-2.3,1.359-3.385-1.216-.71-2.977-.381-4.53.737a5.263,5.263,0,0,1-.84.694,7.389,7.389,0,0,1,.84-.694,19.669,19.669,0,0,0,1.557-1.834,3.04,3.04,0,0,0-1.247-4.851,6.123,6.123,0,0,0-6.856,1.971,9.325,9.325,0,0,0-1.486,4.91c0-1.174-.046-3.415-2.849-3.236-2.877.185-2.241,3.086-2.254,4.632v.089c0-.029,0-.06,0-.089,0-.6-.147-4.408-3.088-5.9a6.066,6.066,0,0,0-4.842-.393c-2.054.7-2.72,2.277-2.259,3.741.555,1.76,2.821,3.291,2.821,3.291a23.835,23.835,0,0,0-3.8-1.319c-2.583-.445-6.762-.577-8.421,1.337-1.592,1.836.737,4.627,5.532,4.746,3.156.078,29.971.169,33.135.169,2.521,0,6.283-1.1,5.649-3.438C81.766,116.957,76.871,116.789,73.9,117.792Z" transform="translate(81.395 4.024)" fill="#e1e0fe" opacity="0.75"/>
    <path id="Path_286" data-name="Path 286" d="M59.825,114.041a3.961,3.961,0,0,1-.565.229,4.237,4.237,0,0,1,.565-.229c.978-.481,1.975-1.411.834-2.076a2.64,2.64,0,0,0-2.779.452,3.227,3.227,0,0,1-.515.426,4.534,4.534,0,0,1,.515-.426,12.064,12.064,0,0,0,.955-1.125,1.865,1.865,0,0,0-.765-2.976,3.756,3.756,0,0,0-4.206,1.209,5.72,5.72,0,0,0-.911,3.012c0-.72-.028-2.095-1.747-1.985-1.765.113-1.375,1.893-1.383,2.842v.054c0-.018,0-.037,0-.054,0-.367-.09-2.7-1.895-3.618a3.721,3.721,0,0,0-2.97-.241,1.813,1.813,0,0,0-1.386,2.295,4.948,4.948,0,0,0,1.73,2.019,14.621,14.621,0,0,0-2.334-.809c-1.584-.273-4.148-.354-5.166.82-.976,1.126.452,2.838,3.393,2.911,1.936.048,18.385.1,20.325.1,1.546,0,3.854-.672,3.465-2.109C64.653,113.529,61.651,113.426,59.825,114.041Z" transform="translate(88.777 8.638)" fill="#d2d0fc" opacity="0.75"/>
    <path id="Path_287" data-name="Path 287" d="M73.9,117.792a6.458,6.458,0,0,1-.921.374,6.909,6.909,0,0,1,.921-.374c1.595-.783,3.22-2.3,1.359-3.385-1.216-.71-2.977-.381-4.53.737a5.263,5.263,0,0,1-.84.694,7.389,7.389,0,0,1,.84-.694,19.669,19.669,0,0,0,1.557-1.834,3.04,3.04,0,0,0-1.247-4.851,6.123,6.123,0,0,0-6.856,1.971,9.325,9.325,0,0,0-1.486,4.91c0-1.174-.046-3.415-2.849-3.236-2.877.185-2.241,3.086-2.254,4.632v.089c0-.029,0-.06,0-.089,0-.6-.147-4.408-3.088-5.9a6.066,6.066,0,0,0-4.842-.393c-2.054.7-2.72,2.277-2.259,3.741.555,1.76,2.821,3.291,2.821,3.291a23.835,23.835,0,0,0-3.8-1.319c-2.583-.445-6.762-.577-8.421,1.337-1.592,1.836.737,4.627,5.532,4.746,3.156.078,29.971.169,33.135.169,2.521,0,6.283-1.1,5.649-3.438C81.766,116.957,76.871,116.789,73.9,117.792Z" transform="translate(115.395 5.024)" fill="#e1e0fe" opacity="0.75"/>
    <path id="Path_288" data-name="Path 288" d="M59.825,114.041a3.961,3.961,0,0,1-.565.229,4.237,4.237,0,0,1,.565-.229c.978-.481,1.975-1.411.834-2.076a2.64,2.64,0,0,0-2.779.452,3.227,3.227,0,0,1-.515.426,4.534,4.534,0,0,1,.515-.426,12.064,12.064,0,0,0,.955-1.125,1.865,1.865,0,0,0-.765-2.976,3.756,3.756,0,0,0-4.206,1.209,5.72,5.72,0,0,0-.911,3.012c0-.72-.028-2.095-1.747-1.985-1.765.113-1.375,1.893-1.383,2.842v.054c0-.018,0-.037,0-.054,0-.367-.09-2.7-1.895-3.618a3.721,3.721,0,0,0-2.97-.241,1.813,1.813,0,0,0-1.386,2.295,4.948,4.948,0,0,0,1.73,2.019,14.621,14.621,0,0,0-2.334-.809c-1.584-.273-4.148-.354-5.166.82-.976,1.126.452,2.838,3.393,2.911,1.936.048,18.385.1,20.325.1,1.546,0,3.854-.672,3.465-2.109C64.653,113.529,61.651,113.426,59.825,114.041Z" transform="translate(122.777 9.638)" fill="#d2d0fc" opacity="0.75"/>
    <path id="Path_289" data-name="Path 289" d="M78.9,117.792a7.957,7.957,0,0,1-1.048.374,8.508,8.508,0,0,1,1.048-.374c1.814-.783,3.662-2.3,1.546-3.385-1.383-.71-3.386-.381-5.152.737a5.891,5.891,0,0,1-.955.694,8.269,8.269,0,0,1,.955-.694,20.56,20.56,0,0,0,1.771-1.834c1.183-1.3,1.418-3.8-1.418-4.851a7.578,7.578,0,0,0-7.8,1.971,8.482,8.482,0,0,0-1.69,4.91c0-1.174-.052-3.415-3.24-3.236-3.273.185-2.549,3.086-2.564,4.632v.089c0-.029,0-.06,0-.089,0-.6-.167-4.408-3.513-5.9a7.76,7.76,0,0,0-5.507-.393c-2.336.7-3.094,2.277-2.569,3.741.631,1.76,3.209,3.291,3.209,3.291a29.664,29.664,0,0,0-4.327-1.319c-2.938-.445-7.691-.577-9.579,1.337-1.811,1.836.839,4.627,6.292,4.746,3.59.078,34.091.169,37.689.169,2.868,0,7.147-1.1,6.426-3.438C87.85,116.957,82.283,116.789,78.9,117.792Z" transform="translate(13.582 79.231)" fill="#e1e0fe" opacity="0.75"/>
  </g>
</svg>
