<svg xmlns="http://www.w3.org/2000/svg" xmlns:xlink="http://www.w3.org/1999/xlink" width="311" height="341" viewBox="0 0 311 341">
  <defs>
    <filter id="Rectangle_8" x="0" y="70" width="311" height="271" filterUnits="userSpaceOnUse">
      <feOffset dy="3" input="SourceAlpha"/>
      <feGaussianBlur stdDeviation="3" result="blur"/>
      <feFlood flood-color="#e6cdd2"/>
      <feComposite operator="in" in2="blur"/>
      <feComposite in="SourceGraphic"/>
    </filter>
    <filter id="Path_159" x="5" y="7.435" width="303" height="245.565" filterUnits="userSpaceOnUse">
      <feOffset dy="3" input="SourceAlpha"/>
      <feGaussianBlur stdDeviation="3" result="blur-2"/>
      <feFlood flood-opacity="0.161"/>
      <feComposite operator="in" in2="blur-2"/>
      <feComposite in="SourceGraphic"/>
    </filter>
  </defs>
  <g id="Group_71" data-name="Group 71" transform="translate(-25 -128)">
    <g transform="matrix(1, 0, 0, 1, 25, 128)" filter="url(#Rectangle_8)">
      <rect id="Rectangle_8-2" data-name="Rectangle 8" width="293" height="253" rx="90" transform="translate(9 76)" fill="#b17cf2"/>
    </g>
    <g transform="matrix(1, 0, 0, 1, 25, 128)" filter="url(#Path_159)">
      <g id="Path_159-2" data-name="Path 159" transform="translate(14 14)" fill="#f0efff">
        <path d="M 195 226.5 L 90 226.5 C 83.92721557617188 226.5 77.85839080810547 225.8882141113281 71.96210479736328 224.6816711425781 C 66.21592712402344 223.5058135986328 60.56378555297852 221.7513122558594 55.16271591186523 219.4668426513672 C 49.85956954956055 217.2238159179688 44.74467849731445 214.4475250244141 39.9600715637207 211.2151031494141 C 35.22074890136719 208.0133209228516 30.7641429901123 204.3362426757812 26.71396446228027 200.2860717773438 C 22.66374969482422 196.2358856201172 18.98671340942383 191.7792358398438 15.78489303588867 187.0399627685547 C 12.55246448516846 182.2553558349609 9.776178359985352 177.1404266357422 7.533143043518066 171.8372802734375 C 5.248678684234619 166.4362030029297 3.494178533554077 160.7840576171875 2.318321466445923 155.0378875732422 C 1.111785769462585 149.1416015625 0.5 143.0727844238281 0.5 137 L 0.5 89.99999237060547 C 0.5 84.34627532958984 1.160714268684387 78.56524658203125 2.463785648345947 72.81742095947266 C 3.713928461074829 67.30306243896484 5.566500186920166 61.76602935791016 7.96999979019165 56.36009979248047 C 10.29275035858154 51.13584899902344 13.1418571472168 46.00538635253906 16.4382495880127 41.11124420166016 C 19.65657234191895 36.33299255371094 23.3055362701416 31.77249336242676 27.28378486633301 27.55645751953125 C 31.21760749816895 23.3874568939209 35.46835708618164 19.56017112731934 39.91792678833008 16.18088531494141 C 44.37985610961914 12.79224300384521 49.03318023681641 9.860671997070312 53.74871444702148 7.467600345611572 C 58.54160690307617 5.035278797149658 63.39746475219727 3.160493135452271 68.181396484375 1.89538586139679 C 73.10003662109375 0.5946002006530762 77.95842742919922 -0.06497124582529068 82.62153625488281 -0.06497124582529068 C 85.10103607177734 -0.06497124582529068 87.55746459960938 0.123100183904171 89.92253875732422 0.4939573407173157 C 94.87096405029297 1.269921660423279 99.00189208984375 2.393921613693237 102.5513229370117 3.93013596534729 C 105.6943588256836 5.290493011474609 108.304069519043 6.9451003074646 110.5296401977539 8.988492965698242 C 114.6666793823242 12.78695774078369 116.8254318237305 17.41381454467773 118.9130706787109 21.88834953308105 C 120.8576049804688 26.0561351776123 122.8683242797852 30.36577796936035 126.4622497558594 34.01810073852539 C 128.4013519287109 35.98870849609375 130.6285705566406 37.60988616943359 133.2711486816406 38.97434997558594 C 136.2213287353516 40.49760055541992 139.6102142333984 41.66424179077148 143.6314239501953 42.54092025756836 C 148.9574279785156 43.70206451416016 154.9830780029297 44.29081344604492 161.5409698486328 44.29081344604492 C 168.8035736083984 44.29081344604492 176.845458984375 43.57206344604492 185.4432525634766 42.15460205078125 C 192.3160705566406 41.02149200439453 199.5583953857422 39.44174194335938 206.9690704345703 37.45924377441406 C 218.7405548095703 34.31012344360352 227.2371063232422 31.12038612365723 228.3945159912109 30.67923545837402 C 229.0901641845703 30.81349754333496 232.4172973632812 31.49087715148926 237.0745391845703 33.00656509399414 C 241.8943176269531 34.57517242431641 249.1660003662109 37.38842010498047 256.437255859375 41.88270568847656 C 264.5925598144531 46.92345809936523 271.0877075195312 53.00999450683594 275.7422485351562 59.97324371337891 C 278.5022583007812 64.10224151611328 280.63818359375 68.59078216552734 282.0906677246094 73.31413269042969 C 283.6893920898438 78.51292419433594 284.5 84.12685394287109 284.5 89.99999237060547 L 284.5 137 C 284.5 143.0727844238281 283.8882141113281 149.1416015625 282.6816711425781 155.0378875732422 C 281.5058288574219 160.7840576171875 279.7513122558594 166.4362030029297 277.4668579101562 171.8372802734375 C 275.2238159179688 177.1404266357422 272.4475402832031 182.2553558349609 269.2151184082031 187.0399627685547 C 266.0133361816406 191.7792358398438 262.3362426757812 196.2358856201172 258.2860717773438 200.2860717773438 C 254.2358856201172 204.3362426757812 249.7792510986328 208.0133209228516 245.0399627685547 211.2151031494141 C 240.2553558349609 214.4475250244141 235.1404266357422 217.2238159179688 229.8372802734375 219.4668426513672 C 224.4362182617188 221.7513122558594 218.7840728759766 223.5058135986328 213.0378875732422 224.6816711425781 C 207.1416015625 225.8882141113281 201.0727844238281 226.5 195 226.5 Z" stroke="none"/>
        <path d="M 82.62153625488281 0.435028076171875 C 78.00154113769531 0.435028076171875 73.18617248535156 1.0889892578125 68.30921936035156 2.378738403320312 C 63.55924987792969 3.6348876953125 58.73654174804688 5.497024536132812 53.97496032714844 7.9134521484375 C 49.28614807128906 10.29299926757812 44.65838623046875 13.20852661132812 40.22032165527344 16.57907104492188 C 35.79257202148438 19.9417724609375 31.56242370605469 23.75053405761719 27.64743041992188 27.89959716796875 C 23.6878662109375 32.09585571289062 20.05606079101562 36.6348876953125 16.85293579101562 41.39056396484375 C 13.57278442382812 46.26063537597656 10.73782348632812 51.36546325683594 8.426849365234375 56.56324768066406 C 6.03656005859375 61.939453125 4.19439697265625 67.4453125 2.951416015625 72.92796325683594 C 1.656524658203125 78.63955688476562 1 84.3834228515625 1 90 L 1 137 C 1 143.0391693115234 1.608367919921875 149.0742797851562 2.80816650390625 154.9376678466797 C 3.977386474609375 160.6514892578125 5.7220458984375 166.2718200683594 7.99365234375 171.6424865722656 C 10.22412109375 176.9159240722656 12.98486328125 182.0021667480469 16.19921875 186.7600708007812 C 19.3831787109375 191.4729614257812 23.03982543945312 195.9048156738281 27.0675048828125 199.9324951171875 C 31.09518432617188 203.9601745605469 35.52703857421875 207.6168212890625 40.23992919921875 210.80078125 C 44.99781799316406 214.01513671875 50.08407592773438 216.77587890625 55.35749816894531 219.00634765625 C 60.72817993164062 221.2779541015625 66.34849548339844 223.0225982666016 72.06231689453125 224.1918182373047 C 77.92572021484375 225.3916320800781 83.9608154296875 226 90 226 L 195 226 C 201.0391845703125 226 207.0742797851562 225.3916320800781 212.9376525878906 224.1918182373047 C 218.6514892578125 223.0225982666016 224.2718200683594 221.2779541015625 229.6425018310547 219.00634765625 C 234.9158935546875 216.77587890625 240.0021820068359 214.01513671875 244.7600402832031 210.80078125 C 249.4729614257812 207.6168212890625 253.9048156738281 203.9601745605469 257.9324951171875 199.9324951171875 C 261.9601745605469 195.9048156738281 265.6167907714844 191.4729614257812 268.80078125 186.7600708007812 C 272.01513671875 182.0021667480469 274.77587890625 176.9159240722656 277.00634765625 171.6424865722656 C 279.2779541015625 166.2718200683594 281.0226135253906 160.6514892578125 282.1918334960938 154.9376678466797 C 283.3916320800781 149.0742797851562 284 143.0391693115234 284 137 L 284 90 C 284 84.18017578125 283.19775390625 78.61874389648438 281.6155700683594 73.47027587890625 C 280.178955078125 68.79545593261719 278.0662841796875 64.35273742675781 275.3362121582031 60.26556396484375 C 270.72607421875 53.36367797851562 264.2878112792969 47.32728576660156 256.2003173828125 42.32406616210938 C 248.9739990234375 37.85360717773438 241.7428283691406 35.05342102050781 236.9491119384766 33.49153137207031 C 232.55859375 32.06106567382812 229.3546752929688 31.37939453125 228.4384765625 31.19732666015625 C 226.8558349609375 31.79621887207031 218.509765625 34.88943481445312 207.0982971191406 37.94224548339844 C 199.6718597412109 39.928955078125 192.4134216308594 41.51217651367188 185.5245361328125 42.64791870117188 C 176.8999633789062 44.06985473632812 168.8307189941406 44.79081726074219 161.5409240722656 44.79081726074219 C 154.9473266601562 44.79081726074219 148.8858642578125 44.19821166992188 143.5249328613281 43.0294189453125 C 126.4924926757812 39.31617736816406 122.4089965820312 30.56388854980469 118.4599609375 22.09974670410156 C 116.2977905273438 17.4654541015625 114.2554931640625 13.08816528320312 110.1914978027344 9.356781005859375 C 108.0077514648438 7.351776123046875 105.4436492919922 5.726776123046875 102.3527069091797 4.388992309570312 C 98.842529296875 2.869735717773438 94.75125122070312 1.757247924804688 89.84507751464844 0.9879150390625 C 87.50543212890625 0.621063232421875 85.0750732421875 0.435028076171875 82.62153625488281 0.435028076171875 M 82.62153625488281 -0.5649566650390625 C 85.11070251464844 -0.5649566650390625 87.57389831542969 -0.38043212890625 90 0 C 129.8288269042969 6.245498657226562 109.1509246826172 34.51199340820312 143.7379302978516 42.05238342285156 C 149.3574676513672 43.27752685546875 155.3871765136719 43.79080200195312 161.5409240722656 43.79080200195312 C 193.2620849609375 43.79080200195312 228.347900390625 30.16160583496094 228.347900390625 30.16160583496094 C 228.347900390625 30.16160583496094 285 40.29438781738281 285 90 L 285 137 C 285 186.7056274414062 244.7056121826172 227 195 227 L 90 227 C 40.29435729980469 227 0 186.7056274414062 0 137 L 0 90 C 0 43.32211303710938 44.24644470214844 -0.5649566650390625 82.62153625488281 -0.5649566650390625 Z" stroke="none" fill="#f0efff"/>
      </g>
    </g>
    <path id="Path_160" data-name="Path 160" d="M379,250.828v11.437s26.64-8.064,53.009,3.164,113.823,64.277,147.421,24.4,60.948-34.947,72.97-29.079,11.3,7.157,11.3,7.157V254.825s-21.824-47.81-58.186-8.59S479.75,289.487,461.59,269.375s-84.157-18.547-84.157-18.547" transform="translate(-340 -1)" fill="#fff"/>
    <path id="Path_161" data-name="Path 161" d="M394.891,182.393" transform="translate(-340 -1)" fill="none" stroke="#707070" stroke-width="1"/>
    <path id="Path_162" data-name="Path 162" d="M390.361,192.989s3.886,7.668,30.82,8.663,108.319,1.254,126.89,19.692,97.191-28.354,97.191-28.354l9.829-1.16-5.624,7.289S562.536,242.934,545.83,229.2s-102.983-28.33-126.076-22.41-35.5-13.8-35.5-13.8Z" transform="translate(-340 -1)" fill="#fff"/>
    <path id="Path_163" data-name="Path 163" d="M380.837,218.714l-1.482,5.328s91.352,7.327,109.052,23.674,110.047-.219,122.38-12.694,49.59-19.887,49.59-19.887l7.1-3.822-9.63,1.756s-43.235,11.691-49.99,19.389-88.727,30.294-116.991,13.608S375.587,217.5,375.587,217.5Z" transform="translate(-340 -1)" fill="#fff"/>
    <path id="Path_282" data-name="Path 282" d="M-88.373,349.317s7.223,15.151,34.439,12.532S-18.079,339.4,16.7,352.995s29.394,19.633,53.524,11.313a269.825,269.825,0,0,1,47.194-11.312L91.29,321.506s-34.62,34.654-71.56,13.539-21.191-28.5-55.552-8.41-43.677,14.96-47.057,8.41S-88.373,349.317-88.373,349.317Z" transform="translate(165 -1)" fill="#fff"/>
    <g id="Group_17" data-name="Group 17" transform="translate(-757.649 -245.352)">
      <path id="Path_164" data-name="Path 164" d="M1812.835,724.626l3.4-3.291c-1.064-5.951-6.647-8.815-10.324-9.205-9.9-1.051-14.947,5.756-17.071,16.673-3.877,19.926,1,103.6,1,103.6.365-2.222,27.254-86.245,26.564-109.33Z" transform="translate(-833.008 -264.655)" fill="#96d9c9"/>
      <path id="Path_165" data-name="Path 165" d="M844.5,1242.19l-.422,3.122-1.01-3.611a14.407,14.407,0,0,0-7.261-.757c-17.469,3.97,12.718,27.994,12.718,27.994a146.161,146.161,0,0,0-18.938-9.864l-.118,3.165-1.192-3.576c-7.24-2.834-13.956-4.144-15.3-.052-1.264,3.852,1.279,7.5,5.655,10.746l5.03.177-2.965,1.243c10.1,6.473,26.821,11.1,32.591,12.155-5.52-.867-19.013-2.623-27.01-.9l1.255,2.088-3.158-1.579c-2.8.9-4.537,2.4-4.35,4.751.358,4.5,19.884,6.121,19.884,6.121l71.331-.662.4.2S867.491,1250.614,844.5,1242.19Z" transform="translate(0 -716.517)" fill="#3c8f7c"/>
      <path id="Path_166" data-name="Path 166" d="M1893.369,952.593c-1.376-6.388-15.345-8.266-33.151-4.764,6.34-2.167,15.051-7.1,19.562-9.352l-3.085-1.964,6.2.288c5.068-2.967,7.6-5.882,5.947-8.519-1.237-1.969-3.95-2.788-7.627-2.779l-1.937,3.466.4-3.418c-9.275.536-11.38-.979-23.892,4.079,7.819-4.059,8.949-5.318,9.462-6.948l-4.235-1.853h4.962c4.011-4.315,10.375-12.852,7.736-16.786-2.178-3.247-11.741,1.26-17.844,3.6l-2.6,5.84.526-4.99c-19.406,8.454-12.828,1.671-12.828,1.671s20.258-41.906,8.324-40.964c-4.711.372-9.778,3.211-14.753,7.761l-.126,4.166-1.48-2.643a106.343,106.343,0,0,0-10.639,12.474c4.645-9.755,8.168-19.338,8.518-26.472l-3.546-.43,3.5-2.434c-.329-3.6-1.757-6.331-4.65-7.772-4.437-2.21-9.094,1.134-13.678,7.78l1.132,6-2.844-3.361c-16.416,26.755-31.426,92.623-31.426,92.623l-1.191,3.572,48.228,2.381S1896.148,965.5,1893.369,952.593Z" transform="translate(-825.112 -385.287)" fill="#50bfa5"/>
      <path id="Path_168" data-name="Path 168" d="M1372.116,1306.323H1259c-4.32,0-7.823-3.177-7.823-7.1v-4.22c0-3.92,3.5-7.1,7.823-7.1h113.112a12.712,12.712,0,0,0-.208,18.2Z" transform="translate(-374.783 -756.826)" fill="#86b1f2"/>
      <path id="Path_169" data-name="Path 169" d="M1695.841,1302.423h-56.92a7.1,7.1,0,0,0-7.1,7.1h0a7.1,7.1,0,0,0,7.1,7.1h56.925A13.645,13.645,0,0,1,1695.841,1302.423Z" transform="translate(-700.094 -769.231)" fill="#fae0b2"/>
      <g id="Group_38" data-name="Group 38" transform="translate(888.672 510.034)">
        <path id="Path_170" data-name="Path 170" d="M1439.187,1144.027c.248-.426-.129-.918-.7-.918H1348.4c-7.06,0-12.784,4.723-12.784,10.55h0c0,5.826,5.724,10.55,12.784,10.55h90.106c.575,0,.953-.5.7-.923h0A18.745,18.745,0,0,1,1439.187,1144.027Z" transform="translate(-1335.62 -1143.109)" fill="#355389"/>
        <path id="Path_171" data-name="Path 171" d="M1640.273,1158.726h-60.44a8.084,8.084,0,0,0-8.084,8.084v.606a8.084,8.084,0,0,0,8.084,8.084H1640.4A18.638,18.638,0,0,1,1640.273,1158.726Z" transform="translate(-1537.425 -1156.456)" fill="#fae0b2"/>
      </g>
      <path id="Path_172" data-name="Path 172" d="M1293.911,1018.3h58.134c5.155,0,9.334-4.507,9.334-10.066h0c0-5.559-4.179-10.066-9.334-10.066h-58.134a16.374,16.374,0,0,1,.415,19.56Z" transform="translate(-411.302 -509.208)" fill="#fae0b2"/>
      <path id="Path_173" data-name="Path 173" d="M1351.52,1002.106h0c0-5.559-4.227-10.066-9.442-10.066H1283.76a.507.507,0,0,1-.489-.527h0a.506.506,0,0,1,.489-.516h92.514c5.755,0,10.42,4.974,10.42,11.109h0c0,6.135-4.665,11.109-10.42,11.109H1283.76a.506.506,0,0,1-.489-.517h0a.507.507,0,0,1,.489-.526h58.318C1347.293,1012.172,1351.52,1007.665,1351.52,1002.106Z" transform="translate(-402.209 -503.075)" fill="#466eb6"/>
      <g id="Group_39" data-name="Group 39" transform="translate(944.789 520.757)">
        <path id="Path_174" data-name="Path 174" d="M1730.3,1216.878h-6.221c-1.338,0-2.423.415-2.423.927v.083h8.644Z" transform="translate(-1721.654 -1216.878)" fill="#ff4c16"/>
        <path id="Path_175" data-name="Path 175" d="M1749.348,1219.2c0-1.284-1.625-2.324-3.629-2.324h-7.984c1.52,0,2.752.789,2.752,1.763l-.038,24.912,4.411-3.2,4.5,3.2Z" transform="translate(-1735.397 -1216.878)" fill="#f47458"/>
      </g>
      <g id="Group_40" data-name="Group 40" transform="translate(866.317 549.459)">
        <path id="Path_176" data-name="Path 176" d="M1359.358,1414.326H1191.285a9.45,9.45,0,0,0-9.45,9.45v7.949a9.45,9.45,0,0,0,9.45,9.45h168.073l-.088-.092A19.245,19.245,0,0,1,1359.358,1414.326Z" transform="translate(-1181.835 -1414.326)" fill="#b75742"/>
        <path id="Path_177" data-name="Path 177" d="M1798.78,1441.667h-89.849a9.45,9.45,0,0,0-9.45,9.45h0a9.45,9.45,0,0,0,9.45,9.45h89.847A19.272,19.272,0,0,1,1798.78,1441.667Z" transform="translate(-1624.232 -1437.693)" fill="#fae0b2"/>
      </g>
      <g id="Group_41" data-name="Group 41" transform="translate(986.625 562.933)">
        <path id="Path_178" data-name="Path 178" d="M2019.577,1507.014h-7.286a2.837,2.837,0,0,0-2.837,2.837v.254h10.124Z" transform="translate(-2009.453 -1507.014)" fill="#13375b"/>
        <path id="Path_179" data-name="Path 179" d="M2031.022,1507.055c1.741,0,4.343,1.473,5.809,3.292l17.282,21.434,10.151-.006-16.437-20.385c-1.934-2.4-5.363-4.342-7.66-4.34Z" transform="translate(-2027.886 -1507.045)" fill="#355389"/>
      </g>
      <g id="Group_43" data-name="Group 43" transform="translate(833.729 511.969)">
        <path id="Path_180" data-name="Path 180" d="M961.6,1575.847l3.542-.827a24.4,24.4,0,0,0,5.553-.362,8.778,8.778,0,0,1,.386,2.182c.02.254-.344,1.516-.6,1.555-.911.14-2.516-.019-5.362.047,0,0-4.481.529-6.879-.262S961.6,1575.847,961.6,1575.847Z" transform="translate(-957.659 -1513.861)" fill="#b75742"/>
        <path id="Path_181" data-name="Path 181" d="M1162.717,1160.444c.2,2.056,1.922,2.781,3.531,4.081,1.08.873.894,3.232.069,4.7-2.09,3.711-.31,4.169,1.375,6.894,4.058,6.564-8.517,8.015-10.009,8.5s-2.5,1.081-3.387.983c-2.661-.294-5.095-4.076-6.446-7.574s1.929-3.682,2.1-5.691-3.67-2.441-2.532-6.235c1.231-4.1,2.968-7.584,5.276-8.832,3.818-2.064,8.46.094,9.516,1.753A3.192,3.192,0,0,1,1162.717,1160.444Z" transform="translate(-1119.649 -1156.426)" fill="#184655"/>
        <path id="Path_182" data-name="Path 182" d="M1116.128,1454.246c.33.823,2.15,3.734,2.15,3.734l-25.537.254-.4-5.239c7.011-.057,13.942-3.157,20.4-5.375C1112.909,1448.017,1115.968,1453.847,1116.128,1454.246Z" transform="translate(-1072.764 -1405.291)" fill="#fae0b2"/>
        <path id="Path_183" data-name="Path 183" d="M1130.219,1290.113s1.371-9.68,3.576-10.685,14.15.388,15.938,1.479-1.19,12.46-1.647,15.64q-.041.286-.088.57a26.641,26.641,0,0,0,1.3,13.631c-6.535,1.985-8.231,3.076-15.24,2.88l-2.617-15.31S1129.363,1290.909,1130.219,1290.113Z" transform="translate(-1104.958 -1261.251)" fill="#50bfa5"/>
        <path id="Path_184" data-name="Path 184" d="M1194.47,1232.91a55.138,55.138,0,0,0,1.02,6.636c.471,1.307-1.261,3.966-4.086,4.7s-.77-2.84-.836-4.222-.34-7.922-.34-7.922Z" transform="translate(-1156.146 -1221.104)" fill="#f7a491"/>
        <path id="Path_185" data-name="Path 185" d="M1196.419,1233.522a5.263,5.263,0,0,1-1.292,1.065,3.894,3.894,0,0,1-2.888.573c-.07-1.647-.129-3.056-.129-3.056l4.242.8S1196.377,1233.144,1196.419,1233.522Z" transform="translate(-1158.029 -1221.104)" fill="#f47458"/>
        <path id="Path_186" data-name="Path 186" d="M1183.289,1170.215a4.846,4.846,0,0,1,2.649,2.067c.981,1.627,1.525,6.332-1.972,8.393s-6.045-1.124-5.981-4.139S1178.836,1169.523,1183.289,1170.215Z" transform="translate(-1145.955 -1168.143)" fill="#f7a491"/>
        <path id="Path_187" data-name="Path 187" d="M1170.672,1196.89c.038.783.438,1.4.893,1.376s.793-.677.754-1.46-.438-1.4-.893-1.375S1170.634,1196.107,1170.672,1196.89Z" transform="translate(-1139.705 -1189.76)" fill="#f7a491"/>
        <path id="Path_188" data-name="Path 188" d="M1231.314,1207.237c-.276.775-.077,1.554.445,1.741s1.168-.289,1.445-1.064.077-1.554-.445-1.741S1231.59,1206.463,1231.314,1207.237Z" transform="translate(-1191.427 -1198.907)" fill="#f7a491"/>
        <path id="Path_189" data-name="Path 189" d="M1245.019,1291.644a8.246,8.246,0,0,0-3.285,4.049c-1.249,2.981,3,18.192,3.911,19.167a2.25,2.25,0,0,0,3.844-1.255C1249.917,1311.222,1248.475,1292.4,1245.019,1291.644Z" transform="translate(-1200.244 -1271.988)" fill="#3c8f7c"/>
        <path id="Path_190" data-name="Path 190" d="M1096.649,1276.81l3.511,21.088-13.669,2.2-4.339-19.727S1093.4,1275.823,1096.649,1276.81Z" transform="translate(-1064.055 -1259.19)" fill="#9bc1f9"/>
        <path id="Path_191" data-name="Path 191" d="M1000.389,1279.1a7.36,7.36,0,0,1,4.108-.375c2.558.5,6.625,1.537,8.257,3.291,2.463,2.647,4.742,20.157,4.742,20.157l-10.626-2.382-6.481-20.69Z" transform="translate(-994.177 -1260.829)" fill="#9bc1f9"/>
        <path id="Path_192" data-name="Path 192" d="M1090.809,1402.61c-1.786-4.963-22.035-23.027-27.394-21.637l2.878,11.017s6.016,17.935,11.91,20.248a15.651,15.651,0,0,0,11.414-.3A11.15,11.15,0,0,0,1090.809,1402.61Z" transform="translate(-1048.042 -1348.266)" fill="#f7cc7f"/>
        <path id="Path_193" data-name="Path 193" d="M1201.694,1330.373c-.252.5,1.358,1.4,1.826,1.745s2.409-.01,2.409-.01S1201.974,1329.812,1201.694,1330.373Z" transform="translate(-1166.196 -1305.011)" fill="#f7a491"/>
        <path id="Path_194" data-name="Path 194" d="M1016.887,1480.181s-5.145,10.692-5.162,11.805c-.025,1.6-7.439,1.164-5.828.478.37-.158,1.537-.749,1.627-.826.479-.412,4.749-13.69,4.749-13.69Z" transform="translate(-998.688 -1431.209)" fill="#f48c7f"/>
        <path id="Path_195" data-name="Path 195" d="M1031.118,1402.694a3.742,3.742,0,0,0-4.863,1.191c-2.007,2.5-5.856,21.968-5.856,21.968l4.731.463S1036.907,1409.079,1031.118,1402.694Z" transform="translate(-1011.279 -1366.514)" fill="#f7cc7f"/>
        <path id="Path_196" data-name="Path 196" d="M988.174,1289.041l6.087,17.745a1.968,1.968,0,0,0,1.575,1.326c5.706.807,8.684,1.217,8.684,1.217s1.113.058,2.294.073l13.063-1.394a2.01,2.01,0,0,0,1.717-2.384l-3.18-17.424a1.958,1.958,0,0,0-2.23-1.619l-12.567,2.112-3.3-.089-9.887-2.214A2,2,0,0,0,988.174,1289.041Z" transform="translate(-983.639 -1267.458)" fill="#f47458"/>
        <path id="Path_197" data-name="Path 197" d="M1164.828,1340.081a38.009,38.009,0,0,0,4.7.614,12.55,12.55,0,0,1,2.75.342s3.913,9.2,4.474,10.228c1.676,3.064,6.323,2.7,6.246.147-.061-2.03-8-14.763-10.108-14.7s-8.716-1.314-8.914-.474c-.107.451,6.083.662,5.107,1.046-.607.238-5.451-.306-5.434.264s4.376.624,4.846,1.067-4.64-.542-4.61.426c.015.487,4.5.136,4.992.875C1169.084,1340.223,1164.457,1339.122,1164.828,1340.081Z" transform="translate(-1133.707 -1309.866)" fill="#f7a491"/>
        <g id="Group_42" data-name="Group 42" transform="translate(6.725 28.672)">
          <path id="Path_198" data-name="Path 198" d="M1004.953,1353.708a.482.482,0,0,0-.662.328.98.98,0,0,0,.138.9c.44.472,3.506.925,3.523.469C1007.964,1355.051,1005.906,1354.12,1004.953,1353.708Z" transform="translate(-1004.198 -1353.667)" fill="#f7a491"/>
          <path id="Path_199" data-name="Path 199" d="M1004.133,1361.923s-.307,1.15-.042,1.159,3.584.338,3.732-.056S1004.56,1361.691,1004.133,1361.923Z" transform="translate(-1003.974 -1360.692)" fill="#f7a491"/>
          <path id="Path_200" data-name="Path 200" d="M1003.935,1369.305a1.051,1.051,0,0,0,.181.806c.275.3,3.365.1,3.477-.389S1004.044,1368.928,1003.935,1369.305Z" transform="translate(-1003.919 -1366.887)" fill="#f7a491"/>
          <path id="Path_201" data-name="Path 201" d="M1007.27,1375.556a.994.994,0,0,0,.151.557c.156.167,2.438-.065,2.665-.551S1007.536,1375.052,1007.27,1375.556Z" transform="translate(-1006.783 -1372.059)" fill="#f7a491"/>
        </g>
        <path id="Path_202" data-name="Path 202" d="M1008.468,1552.149a67.5,67.5,0,0,1-2.184,6.551c-.716,1.707-.9,3.408-1.375,4.261-1.2,2.154-3.16,2.24-4.717.946s.531-6.753.531-6.753l4.916-6.916Z" transform="translate(-993.517 -1492.991)" fill="#f7a491"/>
        <path id="Path_203" data-name="Path 203" d="M1002.262,1603.618c.421-.757.616-2.185,1.156-3.691a4.394,4.394,0,0,1-2.7.582,3.232,3.232,0,0,1-2.642-2.7s-2.622,5.6-1.065,6.889A3.419,3.419,0,0,0,1002.262,1603.618Z" transform="translate(-990.869 -1533.649)" fill="#f47458"/>
        <path id="Path_204" data-name="Path 204" d="M1075.669,1301.994l4.025,20.831-2.422-.146-.7-.05-4.2-20.724Z" transform="translate(-1055.691 -1280.758)" fill="#b75742"/>
        <path id="Path_205" data-name="Path 205" d="M1049.945,1417.9c1.378,2.535,4.125,2.929,6.6,2.722,2.735-.23,5.745-1.726,6.553-4.865a12.762,12.762,0,0,0-2.264-10.133c-10.19-13.465-10.269-14.792-14.326-16.581-4.38-1.931-20.645,25.856-20.645,25.856l4.467,2.283a117.861,117.861,0,0,0,10.98-10.51,32.263,32.263,0,0,0,1.935-3.564S1049.034,1416.227,1049.945,1417.9Z" transform="translate(-1015.947 -1355.149)" fill="#fae0b2"/>
      </g>
      <g id="Group_46" data-name="Group 46" transform="translate(863.735 493.681)">
        <path id="Path_206" data-name="Path 206" d="M1168.219,1030.676a4.927,4.927,0,0,0-2.117,8.844,3.28,3.28,0,0,1,1.25,1.914l.616,2.632a1.429,1.429,0,0,0,1.605,1.087l1.631-.247a1.429,1.429,0,0,0,1.212-1.513c-.191-2.712-.457-3.7.439-4.895A4.928,4.928,0,0,0,1168.219,1030.676Z" transform="translate(-1164.077 -1030.618)" fill="#f7cc7f"/>
        <g id="Group_44" data-name="Group 44" transform="translate(2.345 4.554)">
          <path id="Path_207" data-name="Path 207" d="M1182.948,1069.87h0a.4.4,0,0,1-.447-.338l-.8-5.74-1.344-1.152a.4.4,0,1,1,.516-.6l1.572,1.347.844,6.037A.4.4,0,0,1,1182.948,1069.87Z" transform="translate(-1180.211 -1061.944)" fill="#fae0b2"/>
        </g>
        <g id="Group_45" data-name="Group 45" transform="translate(5.651 4.141)">
          <path id="Path_208" data-name="Path 208" d="M1204.382,1067.387h0a.4.4,0,0,0,.328-.455l-.93-5.72.944-1.5a.4.4,0,1,0-.671-.423l-1.1,1.751.978,6.016A.4.4,0,0,0,1204.382,1067.387Z" transform="translate(-1202.954 -1059.106)" fill="#fae0b2"/>
        </g>
        <path id="Path_209" data-name="Path 209" d="M1186.484,1100.229c.006.022.013.043.018.065l.616,2.632a1.429,1.429,0,0,0,1.605,1.087l1.631-.247a1.429,1.429,0,0,0,1.212-1.513c-.085-1.206-.184-2.071-.19-2.765Z" transform="translate(-1183.227 -1089.477)" fill="#96d9c9"/>
      </g>
      <path id="Path_210" data-name="Path 210" d="M1156.886,685.5l-1.706-2.468-3,.007a.412.412,0,0,1-.329-.662l1.82-2.386-.933-2.851a.412.412,0,0,1,.528-.517l2.831.993,2.423-1.769a.412.412,0,0,1,.655.343l-.07,3,2.431,1.758a.412.412,0,0,1-.123.729l-2.874.86-.921,2.856A.412.412,0,0,1,1156.886,685.5Z" transform="translate(-289.82 -233.672)" fill="#f47458"/>
      <path id="Path_211" data-name="Path 211" d="M2251.9,731.455l-1.254-1.813-2.2.005a.3.3,0,0,1-.241-.487l1.337-1.752-.686-2.095a.3.3,0,0,1,.388-.38l2.08.73,1.78-1.3a.3.3,0,0,1,.482.252l-.052,2.2,1.786,1.291a.3.3,0,0,1-.091.536l-2.111.632-.677,2.1A.3.3,0,0,1,2251.9,731.455Z" transform="translate(-1226.819 -275.151)" fill="#9bc1f9"/>
      <path id="Path_212" data-name="Path 212" d="M1934.548,571.338l-2.771-.466-1.624,2.362-3.069-.742-.954,3.048-3.508-.686-1.224,2.7-3.483-.108.041-1.318,2.6.081,1.292-2.848,3.373.66.969-3.1,3.387.819,1.586-2.306,2.568.432.725-1.732,1.217.509Z" transform="translate(-944.596 -141.681)" fill="#f48c7f"/>
      <path id="Path_213" data-name="Path 213" d="M1438.3,624.7l-2.029.623-1.363-3.154-3.079.545-1.406-2.194-1.111.712,1.88,2.934,2.918-.516,1.418,3.282,3.054-.937Z" transform="translate(-527.023 -186.455)" fill="#50bfa5"/>
      <path id="Path_214" data-name="Path 214" d="M1062.234,879.17l-3.037,1.848,3.15,14.153a1.829,1.829,0,0,0,2.736,1.165h0a1.829,1.829,0,0,0,.831-1.975l-.77-3.323,3.187-1.939,2.635,2.205a1.829,1.829,0,0,0,2.124.16l.058-.035a1.829,1.829,0,0,0,.221-2.967Zm2.055,8.528-.582-2.6,2.045,1.71Z" transform="translate(-210.708 -407.504)" fill="#f48c7f"/>
      <path id="Path_215" data-name="Path 215" d="M2332.907,919.188a4.507,4.507,0,0,1,2.1-3.217c.82-.561,1.492-1.039,1.674-1.694.314-1.13-.876-1.673-2.061-1.668a1.134,1.134,0,0,1-1.134-1.1h0a1.14,1.14,0,0,1,1.086-1.174,7.388,7.388,0,0,1,2.32.266c2.544.706,3.31,2.434,2.866,4.034a4.971,4.971,0,0,1-2.537,2.783,3.56,3.56,0,0,0-1.748,2.483Zm-1.239,2.52a1.79,1.79,0,1,1,1.228,2.23A1.734,1.734,0,0,1,2331.667,921.708Z" transform="translate(-1298.137 -434.131)" fill="#f7cc7f"/>
      <g id="Group_49" data-name="Group 49" transform="translate(945.352 411.444)">
        <path id="Path_216" data-name="Path 216" d="M1729.969,464.9a4.482,4.482,0,0,0-3.106,7.666,2.982,2.982,0,0,1,.864,1.891l.2,2.451a1.3,1.3,0,0,0,1.3,1.2h1.5a1.3,1.3,0,0,0,1.3-1.2c.2-2.465.092-3.388,1.06-4.342A4.482,4.482,0,0,0,1729.969,464.9Z" transform="translate(-1725.527 -464.897)" fill="#f7cc7f"/>
        <g id="Group_47" data-name="Group 47" transform="translate(2.156 3.849)">
          <path id="Path_217" data-name="Path 217" d="M1741.8,498.822h0a.361.361,0,0,1-.357-.364l.059-5.271-1.052-1.218a.361.361,0,0,1,.546-.471l1.231,1.425-.062,5.543A.361.361,0,0,1,1741.8,498.822Z" transform="translate(-1740.361 -491.372)" fill="#fae0b2"/>
        </g>
        <g id="Group_48" data-name="Group 48" transform="translate(4.98 4.069)">
          <path id="Path_218" data-name="Path 218" d="M1760.208,500.337h0a.36.36,0,0,0,.356-.364l-.058-5.271,1.052-1.218a.361.361,0,1,0-.546-.471l-1.231,1.425.062,5.543A.36.36,0,0,0,1760.208,500.337Z" transform="translate(-1759.786 -492.887)" fill="#fae0b2"/>
        </g>
        <path id="Path_219" data-name="Path 219" d="M1740.6,530.221c0,.02.006.04.008.061l.2,2.451a1.3,1.3,0,0,0,1.3,1.2h1.5a1.3,1.3,0,0,0,1.3-1.2c.088-1.1.116-1.887.205-2.512Z" transform="translate(-1738.413 -520.725)" fill="#96d9c9"/>
      </g>
      <path id="Path_220" data-name="Path 220" d="M1788.387,418.738l-3.424,5.806,5.806-4.317Z" transform="translate(-830.971 -14.004)" fill="#fae0b2"/>
      <path id="Path_221" data-name="Path 221" d="M1712.745,403.238l3.5,5.962-.6-6.848Z" transform="translate(-769.252)" fill="#fae0b2"/>
      <path id="Path_222" data-name="Path 222" d="M1670.187,467.167l5.569,2.19-5.685.341Z" transform="translate(-732.781 -55.393)" fill="#fae0b2"/>
      <path id="Path_223" data-name="Path 223" d="M1789.06,521.151l2.233,2.829,1.637-1.935Z" transform="translate(-834.472 -101.529)" fill="#fae0b2"/>
      <path id="Path_224" data-name="Path 224" d="M1804.422,473.053l5.062-2.084.149,2.233Z" transform="translate(-847.602 -58.642)" fill="#fae0b2"/>
      <path id="Path_225" data-name="Path 225" d="M1685.265,524.224l-4.764,2.233,1.489,1.786Z" transform="translate(-741.695 -104.155)" fill="#fae0b2"/>
      <path id="Path_226" data-name="Path 226" d="M1303.95,731.617a23.272,23.272,0,0,1,3.7.779,7.128,7.128,0,0,1,3.464,1.747,2.809,2.809,0,0,1,.8,2.857,2.917,2.917,0,0,1-2.8,2.067l-.011.037a3.23,3.23,0,0,1,1.594,3.762,3.439,3.439,0,0,1-2.042,2.265c-1.107.46-2.733.434-5.2-.271a22.656,22.656,0,0,1-2.986-1.052Zm1.423,5.545.921.263c1.473.421,2.438.04,2.7-.881.268-.939-.308-1.641-1.578-2a7.931,7.931,0,0,0-1.218-.268Zm-1.573,5.506a9.282,9.282,0,0,0,1.076.347c1.271.363,2.531.205,2.9-1.1.358-1.252-.623-2.07-2.023-2.47l-.958-.274Z" transform="translate(-416.904 -281.401)" fill="#96d9c9"/>
      <path id="Path_227" data-name="Path 227" d="M2086.448,693.593a1.3,1.3,0,0,1-.954,1.551,12.156,12.156,0,0,1-2.4.308c-4.891.165-7.513-2.794-7.649-6.825-.163-4.828,3.189-7.632,7.472-7.776a10.851,10.851,0,0,1,2.2.14,1.3,1.3,0,0,1,1.042,1.56l-.01.045a1.3,1.3,0,0,1-1.486,1,7.2,7.2,0,0,0-1.512-.105c-2.54.086-4.462,1.685-4.355,4.834.1,2.834,1.835,4.562,4.69,4.465a8.429,8.429,0,0,0,1.432-.181,1.3,1.3,0,0,1,1.528.983Z" transform="translate(-1079.223 -238.009)" fill="#f7cc7f"/>
      <path id="Path_228" data-name="Path 228" d="M1037.935,1145.544a1.984,1.984,0,0,1,1.244-2.487,1.972,1.972,0,1,1-1.244,2.487Zm-.345-3.067-3.294-7.868a1.233,1.233,0,0,1,.72-1.637l.8-.289a1.234,1.234,0,0,1,1.6.8l2.5,8.158Z" transform="translate(-189.344 -624.102)" fill="#466eb6"/>
      <g id="Group_51" data-name="Group 51" transform="translate(974.843 491.136)">
        <g id="Group_50" data-name="Group 50">
          <path id="Path_229" data-name="Path 229" d="M2086.362,1122.969s8.489,3.7,9.239,3.864c.469.1,5.865-5.489,8.807-7.673.136-.1.659-.845.805-.919,1.75-.879-1.209,4.185-1.209,4.185s-6.259,7.959-7.675,8.641c-1.779.857-10.568-3.489-10.515-3.74Z" transform="translate(-2062.931 -1102.871)" fill="#f48c7f"/>
          <path id="Path_230" data-name="Path 230" d="M1950.488,1025.266c.365-2.5,2.1-7.827.5-9.956a5.97,5.97,0,0,0-9.261.012,15.143,15.143,0,0,0-2.132,4.519,22.625,22.625,0,0,1-1.2,3.013,6.022,6.022,0,0,1-1.789,2.46c-3.738,2.328-7.923,3.827-8.193,9.071-.32,6.219,6.493,14,14.859,10.234,3.2-1.442,7.4-6.1,8.768-9.33.617-1.454.322-1.3-.019-3.517C1951.717,1029.787,1950.194,1027.28,1950.488,1025.266Z" transform="translate(-1928.404 -1013.113)" fill="#184655"/>
          <path id="Path_231" data-name="Path 231" d="M2034.942,1122.281l11.365,6.253-2.68,4.069s-8.557-3.261-10.287-3.728S2032.973,1122.111,2034.942,1122.281Z" transform="translate(-2017.409 -1106.409)" fill="#355389"/>
          <path id="Path_232" data-name="Path 232" d="M2043.977,1082.447s-.3,4.328-.516,5.541c-.228,1.254-.367,6.474,2.241,7.111s1.628-6.431,1.672-7.7.3-5.385.3-5.385Z" transform="translate(-2026.638 -1072.001)" fill="#f7a491"/>
          <path id="Path_233" data-name="Path 233" d="M2047.423,1082.966a4.931,4.931,0,0,0,.71.835,3.453,3.453,0,0,0,2.85,1.082c.082-1.435.17-2.867.17-2.867l-3.694.43S2047.446,1082.645,2047.423,1082.966Z" transform="translate(-2030.121 -1072.001)" fill="#f47458"/>
          <path id="Path_234" data-name="Path 234" d="M2040.992,1027.995a4.459,4.459,0,0,0-2.8,1.3c-1.213,1.252-2.664,5.344.049,7.9s5.4.36,5.956-2.347S2045.126,1028.291,2040.992,1027.995Z" transform="translate(-2020.96 -1025.832)" fill="#f7a491"/>
          <path id="Path_235" data-name="Path 235" d="M2030.99,1024.625s-1.654,4.268-5.561,3.907c-1.77-.163-2.17,2.253-2.17,2.253s1.448-5.738,3.265-6.59S2030.99,1024.625,2030.99,1024.625Z" transform="translate(-2009.47 -1022.334)" fill="#184655"/>
          <path id="Path_236" data-name="Path 236" d="M2030.8,1055.5c.089.749-.249,1.4-.755,1.464s-.988-.5-1.077-1.247.249-1.4.755-1.464S2030.707,1054.75,2030.8,1055.5Z" transform="translate(-2014.333 -1048.268)" fill="#f7a491"/>
          <path id="Path_237" data-name="Path 237" d="M2184.045,1069.313l-9.621,19.658a.941.941,0,0,0,.157,1.2l7.028,4.116,8.785-17.421s-3.827-5.728-5.263-7.875C2184.865,1068.592,2184.318,1068.755,2184.045,1069.313Z" transform="translate(-2138.545 -1060.679)" fill="#b75742"/>
          <path id="Path_238" data-name="Path 238" d="M2182.919,1099.537l8.372-17.105c.273-.558.82-.721,1.086-.324l4.2,6.278-7.885,15.636-5.612-3.286A.941.941,0,0,1,2182.919,1099.537Z" transform="translate(-2145.805 -1071.891)" fill="#fae0b2"/>
          <path id="Path_239" data-name="Path 239" d="M2214.329,1112.377a2.026,2.026,0,0,1,.747-.6c.406-.108.9-.092.978.169.117.38-1.082.8-1.082.8l-.653.946A1.755,1.755,0,0,1,2214.329,1112.377Z" transform="translate(-2172.643 -1097.383)" fill="#f48c7f"/>
          <path id="Path_240" data-name="Path 240" d="M2045.406,1115.066s2.962,2.447,3.813,3.3a21.412,21.412,0,0,0,2.32,1.873l-2.395-3.313-1.517-1.416Z" transform="translate(-2028.398 -1100.246)" fill="#f7a491"/>
          <path id="Path_241" data-name="Path 241" d="M2074.8,1261.124a5.472,5.472,0,0,1-1.048-1.953c-1-5.152-5.7-19.089-10.83-19.089-4.467,0-18.263,10.819-24.714,17.072-1.863,1.806-1.737.273-.6.695.682.251,5.288,7.913,6.025,7.947,2.253.1,4.336-1.406,6.216-2.455a17.928,17.928,0,0,0,6.526-5.912,100.069,100.069,0,0,0,7.072-12.417,57.853,57.853,0,0,0,1.787,6.154c1.328,2.7,5.3,9.352,6.848,11.944l6.088-.165A31.115,31.115,0,0,1,2074.8,1261.124Z" transform="translate(-2021.026 -1207.088)" fill="#f48c7f"/>
          <path id="Path_242" data-name="Path 242" d="M2088.323,1259.7s-20.446,9.528-21.737,12.8-.3,8.139,2.68,9.131,21.439-14.789,21.439-14.789a31.156,31.156,0,0,0,5.757,7.345c1.8,1.587,4.84,2.882,6.576,4.045a4.627,4.627,0,0,1,1.861,2.01l4.268.2s-.719-.246-2.01-1.985C2102.8,1272.588,2092.688,1258.935,2088.323,1259.7Z" transform="translate(-2046.026 -1223.829)" fill="#f7a491"/>
          <path id="Path_243" data-name="Path 243" d="M2042.842,1251.689s6.568,7.08,7.858,16.41c0,0-10.289,4.433-15.351,7.114a9.91,9.91,0,0,1-12.506-3.077c-1.787-2.978,0-11.365,0-11.365l10.521-1.638Z" transform="translate(-2008.435 -1217.008)" fill="#13375b"/>
          <path id="Path_244" data-name="Path 244" d="M2267.523,1386.249c-.523-.2-.707,2.448-.793,3.038a1.407,1.407,0,0,0,.3,1.17c.217.15,8.648.316,10.261-.116a1.614,1.614,0,0,0,.377-.2c1.184-1.033-4.294-3.773-5.4-3.543A7.38,7.38,0,0,1,2267.523,1386.249Z" transform="translate(-2217.534 -1331.998)" fill="#355389"/>
          <path id="Path_245" data-name="Path 245" d="M2020.295,1122.984s-1.6-.015-3.319,3.68c-2.108,4.542.9,21.871.681,24.344,0,0,.743.854,5.071,1.479a6.7,6.7,0,0,0,6-2.184,39.805,39.805,0,0,1,.5-12.986c.8-3.411,1.223-6.718-1.942-9.785A23.527,23.527,0,0,0,2020.295,1122.984Z" transform="translate(-2003.456 -1107.012)" fill="#466eb6"/>
          <path id="Path_246" data-name="Path 246" d="M2315.469,1387.374c-.523-.2-.974,2.351-.935,2.974a2.548,2.548,0,0,0,.292,1.213c.217.15,8.657.273,10.269-.159a1.625,1.625,0,0,0,.377-.2c1.184-1.033-4.908-3.618-6.012-3.388C2318.478,1388.016,2317.823,1388.271,2315.469,1387.374Z" transform="translate(-2258.401 -1332.959)" fill="#466eb6"/>
          <path id="Path_247" data-name="Path 247" d="M2187.063,1063.813l-15.947,23.22c-.367.535-.281,1.187.182,1.359l10.785,4.02,12.755-18.285-6.364-10.545C2188.187,1063.106,2187.467,1063.224,2187.063,1063.813Z" transform="translate(-2135.639 -1055.994)" fill="#f47458"/>
          <path id="Path_248" data-name="Path 248" d="M2068.061,1162.365c-.2-.4-1.861.483-1.861.483a12.5,12.5,0,0,1-1.578.2c-.118-.062.99-.155.99-.155s1.811-.619,1.791-.822c-.083-.835-1.217.2-2.106.242a11.678,11.678,0,0,1-2.069-.093c-.26-.146.4-.475.4-.475s.871-.391.732-.62c-.338-.556-2.375.5-2.8.893a6.239,6.239,0,0,1-1.146,1.056c-2.176,1.231-4.784,3.343-7.861,4.825-1.02-.856-10.853-9.683-11.1-9.9l-5.371,4.23c.007.005,15.408,11.735,16.264,11.707,1.076-.035,7.489-6.8,9.225-8.417a5.791,5.791,0,0,1,2.365-.364,7.807,7.807,0,0,0,2.9-.65c.582-.615-2.145.006-1.887-.154a10.312,10.312,0,0,1,1.444-.234,2.217,2.217,0,0,0,1.37-.669c.161-.361-1.519.157-1.519.157l-1.4.086,1.34-.273S2068.261,1162.75,2068.061,1162.365Z" transform="translate(-2020.427 -1136.941)" fill="#f7a491"/>
          <path id="Path_249" data-name="Path 249" d="M2025.937,1132.812c-1.737-1.777-5.075-1.519-6.05,1.018a7.057,7.057,0,0,0,.05,3.474c1.235,2.978,8.437,7.841,8.437,7.841l3.97-5.409Z" transform="translate(-2006.424 -1114.434)" fill="#86b1f2"/>
        </g>
      </g>
      <g id="Group_55" data-name="Group 55" transform="translate(911.358 430.611)">
        <path id="Path_250" data-name="Path 250" d="M1556.392,761.3c0-.228.281-1.7.281-1.7s-.655-2.086-.721-2.091c-1.347-.1-2.364.819-2.136,2.05l.013.041a6.264,6.264,0,0,0,4.871,4.292c.524.094,1.078.192,1.645.292a9.26,9.26,0,0,1-.423-2.746A23.6,23.6,0,0,1,1556.392,761.3Z" transform="translate(-1544.756 -734.139)" fill="#f7a491"/>
        <path id="Path_251" data-name="Path 251" d="M1607.3,720.3c-.037-.112-11.844,7.568-11.844,7.568s-5.039.05-8.762.018a11.92,11.92,0,0,0,.468,3.29,72.461,72.461,0,0,0,8.824,1.358c1.776-.137,10.686-4.582,10.686-4.582S1607.325,720.386,1607.3,720.3Z" transform="translate(-1572.879 -702.341)" fill="#355389"/>
        <path id="Path_252" data-name="Path 252" d="M1712.931,742.422a81.107,81.107,0,0,1-2.779-16.41c-.2-5.942,1.637-11.268,2.581-12.241a19.511,19.511,0,0,1,3.59-1.141l-1.18,1.959a23.187,23.187,0,0,0-2.046,6.825c-1.51,7.41,5.274,22.237,4.93,22.332C1717.641,743.852,1713.027,743.181,1712.931,742.422Z" transform="translate(-1678.38 -695.784)" fill="#466eb6"/>
        <path id="Path_253" data-name="Path 253" d="M1539.171,711.855l-2.072,1.353,6.2,10.428,1.947-8.467Z" transform="translate(-1530.497 -695.123)" fill="#9bc1f9"/>
        <path id="Path_254" data-name="Path 254" d="M1560.167,700.574l2.6,8.655,2.087-3.739Z" transform="translate(-1550.211 -685.482)" fill="#9bc1f9"/>
        <path id="Path_255" data-name="Path 255" d="M1603.483,693.7l2,7.267-14.76-1.34Z" transform="translate(-1576.328 -679.608)" fill="#9bc1f9"/>
        <path id="Path_256" data-name="Path 256" d="M1547.977,895.47s-6.273,7.663-6.29,8.777c-.025,1.6-7.439,1.164-5.829.478.371-.158,1.537-.749,1.627-.826.479-.413,5.421-10.086,5.421-10.086Z" transform="translate(-1529.241 -850.629)" fill="#f7a491"/>
        <path id="Path_257" data-name="Path 257" d="M1495.033,965.189l4.769-1.484a7.054,7.054,0,0,0,4.326.294,6.373,6.373,0,0,1,.816,2.594c.02.254.145,1.006-.106,1.044-.911.14-3.435.081-6.281.146a24.06,24.06,0,0,1-6.233-.747C1489.925,966.245,1495.033,965.189,1495.033,965.189Z" transform="translate(-1491.683 -910.362)" fill="#07345a"/>
        <path id="Path_258" data-name="Path 258" d="M1585.585,837.738a34.082,34.082,0,0,1-10.918-5.062c-6.1-4.365-12.969-8.906-15.682-8.536-2.184.3-14.888,17.766-14.888,17.766l6.154,2.68,11.116-11.414s11.356,11.707,15.087,12.506C1584.951,847.5,1587.666,841.233,1585.585,837.738Z" transform="translate(-1536.478 -791.067)" fill="#b75742"/>
        <path id="Path_259" data-name="Path 259" d="M1534.927,718.674l8.558,18.131a.3.3,0,0,0,.2.163l5.716,1.589-7.3-17.961-6.806-2.331A.3.3,0,0,0,1534.927,718.674Z" transform="translate(-1528.616 -700.586)" fill="#f7cc7f"/>
        <path id="Path_260" data-name="Path 260" d="M1711.919,597.709a1.979,1.979,0,0,1,3.346,0,1.471,1.471,0,0,1,1.987.252s1.965-.874,2.849,2.118a1.031,1.031,0,0,1,1.324.9,3.117,3.117,0,0,1-.232,2.146s.647.368.524,1.551a1.433,1.433,0,0,1-.894,1.257s-.009,1.674-.661,2.261a2.347,2.347,0,0,1-1.654.472s-.145.925-.988.952-1.976-.636-2.862-.161a10.04,10.04,0,0,1-3.355.405,3.407,3.407,0,0,1-2.41-3.746,2.048,2.048,0,0,1-.538-2.814s-1.22-2.3.4-3.962A4.745,4.745,0,0,1,1711.919,597.709Z" transform="translate(-1676.482 -596.75)" fill="#07345a"/>
        <path id="Path_261" data-name="Path 261" d="M1651.9,1072.8s.348,9.429.563,11.026-4,6.378-3.463,4.713c.124-.383.443-1.651.444-1.77,0-.632-1.563-11.388-1.563-11.388Z" transform="translate(-1625.174 -1003.597)" fill="#f7a491"/>
        <path id="Path_262" data-name="Path 262" d="M1637.249,1156.387l2.008-4.573a7.057,7.057,0,0,0,3.06-3.072,6.374,6.374,0,0,1,2.493,1.085c.2.151.854.55.719.765-.492.78-2.193,2.646-4.01,4.837a24.073,24.073,0,0,1-4.652,4.215C1634.7,1160.935,1637.249,1156.387,1637.249,1156.387Z" transform="translate(-1615.014 -1068.501)" fill="#07345a"/>
        <path id="Path_263" data-name="Path 263" d="M1631.1,905.231c.44-.448-4.462-24.57-2.084-26.9s18.263-5.757,18.263-5.757l2.084-7.345s6.642,1.948,9.33,5.955c1.47,2.192-.033,7.19-.3,7.742-2.269,4.724-7.874,4.963-11.952,4.921-3.752-.039-10.413-.091-10.413-.091l-.016,21.323a12.939,12.939,0,0,1-2.928.347A6.927,6.927,0,0,1,1631.1,905.231Z" transform="translate(-1608.491 -826.203)" fill="#f47458"/>
        <path id="Path_264" data-name="Path 264" d="M1731.52,707.091l4.3-1.546a1.681,1.681,0,0,0,.169,0c.462-.058,5.538,16.551,7.194,22.834s-.513,5.091-.513,5.091a18.843,18.843,0,0,1-8.211,2.531c-4.591.173-3.672-5.36-3.672-5.36s-2.417-11.552-2.134-15.484A20.976,20.976,0,0,1,1731.52,707.091Z" transform="translate(-1694.188 -689.73)" fill="#fff"/>
        <path id="Path_265" data-name="Path 265" d="M1748.63,667.562l-.017,2.117,0,.376s-.292,3.625.746,4.185,3.5-4.846,3.5-4.846l-1.116-6.15Z" transform="translate(-1711.229 -653.579)" fill="#f7a491"/>
        <path id="Path_266" data-name="Path 266" d="M1752.349,665.245a7.1,7.1,0,0,1-3.492,4.431l.017-2.113,3.114-4.317Z" transform="translate(-1711.473 -653.58)" fill="#f47458"/>
        <path id="Path_267" data-name="Path 267" d="M1726.278,619.871a3.3,3.3,0,0,0-3.956,3.154,24.972,24.972,0,0,0,.133,3.178c.311,2.869,2.146,5.468,3.446,5.3a6.182,6.182,0,0,0,4.272-6.554C1729.936,622.432,1728.394,620.311,1726.278,619.871Z" transform="translate(-1688.79 -616.45)" fill="#f7a491"/>
        <path id="Path_268" data-name="Path 268" d="M1769.992,650.819a.962.962,0,1,0,.79-1.262A1.064,1.064,0,0,0,1769.992,650.819Z" transform="translate(-1729.526 -641.876)" fill="#f7a491"/>
        <path id="Path_269" data-name="Path 269" d="M1703.042,608.41c-1.208,1.234-1.474,2.91-.593,3.743s2.573.509,3.781-.725,1.474-2.91.593-3.743S1704.25,607.176,1703.042,608.41Z" transform="translate(-1671.366 -605.7)" fill="#07345a"/>
        <path id="Path_270" data-name="Path 270" d="M1734.468,612.391c.058.462.664.766,1.353.679s1.2-.533,1.141-1-.664-.766-1.353-.679S1734.409,611.929,1734.468,612.391Z" transform="translate(-1699.171 -609.255)" fill="#07345a"/>
        <path id="Path_271" data-name="Path 271" d="M1712.026,638.866a1.073,1.073,0,1,0,.928-1.211A1.079,1.079,0,0,0,1712.026,638.866Z" transform="translate(-1679.988 -631.701)" fill="#07345a"/>
        <path id="Path_272" data-name="Path 272" d="M1769.928,703.612s4.21-.683,5.626-.081c.9.383,2.045,8.018,2.045,8.018s.046,7.722.573,9.9c1.784,7.381,4.276,13.845,4,14.21-1.831,1.506-9.492,2.9-10.074,2.184C1765.666,729.921,1769.928,703.612,1769.928,703.612Z" transform="translate(-1728.297 -687.796)" fill="#466eb6"/>
        <path id="Path_273" data-name="Path 273" d="M1706.82,741.31s-4.217,13.034-6.062,14.4-10.142-11.423-10.142-11.423-3.672-2.084-3.934-2.106c-1.042-.087,2.172-.623,2.172-.623l.4-3.325s.157.024,1.117,1.1c1.3,1.46,2.424,3.725,2.953,4.107l5.558,4.218,2.829-9.032Z" transform="translate(-1658.158 -717.666)" fill="#f7a491"/>
        <path id="Path_274" data-name="Path 274" d="M1584.435,733.4l1.746-.17,7.481,18.618-1.923-.487Z" transform="translate(-1570.952 -713.387)" fill="#fae0b2"/>
        <path id="Path_275" data-name="Path 275" d="M1611.336,700.388l4.5,21.92a.6.6,0,0,1-.565.715l-11.348.35-7.481-18.618,14.116-4.811A.6.6,0,0,1,1611.336,700.388Z" transform="translate(-1581.215 -684.916)" fill="#f7cc7f"/>
        <path id="Path_276" data-name="Path 276" d="M1721.866,713.211l-1.439,3.151s7.072,11.637,9.255,10.992,6.3-13.25,6.948-16.724-.695-6.352-2.481-6.8-3.176,2.581-3.722,3.871-2.531,10.521-2.531,10.521Z" transform="translate(-1687.175 -688.228)" fill="#86b1f2"/>
        <g id="Group_52" data-name="Group 52" transform="translate(9.195 23.47)">
          <path id="Path_277" data-name="Path 277" d="M1555.292,759.892a4.921,4.921,0,0,1-.35-.75c-.085-.284,1.656-1.272,2.345-.822S1556.136,759.457,1555.292,759.892Z" transform="translate(-1554.939 -758.205)" fill="#f7a491"/>
        </g>
        <g id="Group_53" data-name="Group 53" transform="translate(9.097 24.451)">
          <path id="Path_278" data-name="Path 278" d="M1554.786,766.8a2.8,2.8,0,0,1-.522-.743c-.085-.284,2.232-1.45,2.92-1S1555.629,766.364,1554.786,766.8Z" transform="translate(-1554.261 -764.955)" fill="#f7a491"/>
        </g>
        <g id="Group_54" data-name="Group 54" transform="translate(9.89 25.41)">
          <path id="Path_279" data-name="Path 279" d="M1560.244,773.228a2.8,2.8,0,0,1-.522-.743c-.085-.284,1.656-1.272,2.345-.822S1561.088,772.792,1560.244,773.228Z" transform="translate(-1559.719 -771.548)" fill="#f7a491"/>
        </g>
        <path id="Path_280" data-name="Path 280" d="M1684.893,745.016h-.362a2.382,2.382,0,0,1-.51-.055c-.668-.146-2.494-.508-2.636-.144-.174.447,2.63.968,2.63.968s-3.077-.4-3.077.124,3.126.794,3.126.794-2.729-.1-2.779.2,3.35,1.142,3.35,1.142-2.754-.6-3.027-.248,4.318,2.022,4.318,2.022Z" transform="translate(-1653.427 -723.159)" fill="#f7a491"/>
        <path id="Path_281" data-name="Path 281" d="M1563.085,779.371s1.505-.849,1.9-.584-1.29,1.538-1.29,1.538l.2.465S1562.82,779.955,1563.085,779.371Z" transform="translate(-1552.67 -752.281)" fill="#f7a491"/>
      </g>
    </g>
    <path id="Path_40" data-name="Path 40" d="M436,29.029a20.462,20.462,0,1,0,20.462,20.462A20.462,20.462,0,0,0,436,29.029Z" transform="translate(-338.539 98.971)" fill="#f7cc7f"/>
  </g>
</svg>
